<svg width="100%" height="100%" viewBox="0 0 1469 1469" version="1.1" xmlns="http://www.w3.org/2000/svg" xmlns:xlink="http://www.w3.org/1999/xlink" xml:space="preserve" xmlns:serif="http://www.serif.com/" style="fill-rule:evenodd;clip-rule:evenodd;stroke-miterlimit:10;">
    <g transform="matrix(1,0,0,1,-396.6,-417.948)">
        <g id="Capa-1" serif:id="Capa 1" transform="matrix(4.16667,0,0,4.16667,0,0)">
            <g transform="matrix(1,0,0,1,432.494,276.5)">
                <path d="M0,-0.007C0,88.961 -72.138,161.111 -161.115,161.111C-250.102,161.111 -322.235,88.961 -322.235,-0.007C-322.235,-43.788 -304.772,-83.5 -276.423,-112.538C-247.16,-142.507 -206.311,-161.118 -161.115,-161.118C-72.138,-161.118 0,-88.984 0,-0.007" style="fill:white;fill-rule:nonzero;stroke:rgb(198,198,198);stroke-width:3px;"></path>
            </g>
            <g transform="matrix(1,0,0,1,306.863,307.208)">
                <path d="M0,-55.615L25.626,-74.867C25.626,-74.867 23.562,-75.91 7.71,-86.816C-8.118,-97.712 -21.1,-105.821 -43.701,-105.468C-75.355,-104.974 -93.179,-86.342 -99.401,-74.399C-108.009,-57.921 -108.123,-52.687 -108.899,-48.543C-109.684,-44.375 -109.296,-42.449 -111.753,-35.722C-114.509,-28.185 -122.893,-22.435 -122.893,-22.435C-122.893,-22.435 -115.924,-20.943 -111.517,-16.271C-107.102,-11.594 -105.558,-7.907 -100.358,2.48C-95.162,12.861 -82.621,38.014 -54.067,46.064C-48.618,47.872 -36.664,50.206 -26.792,49.693C-16.939,49.175 3.436,47.228 15.908,20.744C19.289,13.479 20.953,10.745 23.023,7.619C25.103,4.498 29.743,-1.293 30.767,-1.57C26.099,-1.57 -1.811,-1.243 -1.811,-1.243C-1.811,-1.243 1.247,4.486 1.517,9.682C1.766,14.872 -1.026,31.649 -14.782,34.503C-28.537,37.36 -50.782,38.517 -66.341,25.017C-81.93,11.513 -84.396,1.121 -85.178,-6.929C-85.947,-14.981 -83.604,-23.066 -80.27,-26.708C-80.27,-26.708 -82.445,-28.152 -83.754,-29.701C-85.047,-31.266 -92.575,-42.159 -90.24,-56.441C-87.902,-70.721 -78.2,-83.06 -65.481,-87.213C-52.761,-91.363 -38.9,-93.951 -25.141,-90.059C-11.397,-86.164 -5.721,-82.098 -3.637,-78.984C-1.564,-75.858 -0.704,-74.16 0.487,-67.043C1.594,-60.387 0,-55.615 0,-55.615" style="fill:rgb(255,209,94);fill-rule:nonzero;"></path>
            </g>
            <g transform="matrix(1,0,0,1,252.072,179.971)">
                <path d="M0,188.091C-0.709,190.505 -3.47,190.674 -7.109,191.541C-10.735,192.407 -18.864,191.541 -18.864,191.541C-27.525,189.992 -31.338,183.75 -29.954,180.119C-28.567,176.483 -20.083,177.182 -13.332,179.254C-6.587,181.331 0.686,185.657 0,188.091M86.362,169.094C83.85,154.991 71.481,156.039 67.586,156.409C64.725,156.676 57.235,162.153 57.975,168.355C58.832,175.622 63.676,177.951 63.676,177.951C63.676,177.951 65.585,181.331 61.601,184.442C58.256,187.08 54.609,191.987 40.311,191.717C26.043,191.45 18.51,186.522 18.51,186.522C18.51,186.522 31.23,173.537 31.492,151.475C30.99,138.75 29.368,135.948 29.887,121.412C30.41,106.872 35.105,100.53 35.105,100.53C35.105,100.53 23.355,97.133 13.752,87.009C4.14,76.892 -2.13,56.282 -2.383,30.062C-2.65,3.851 17.991,-0.124 22.144,-0.124C26.285,-0.124 48.102,1.675 48.62,20.38C48.102,26.61 44.731,33.102 38.767,34.912C32.794,36.737 30.752,35.117 34.391,31.485C38.023,27.845 35.442,15.757 26.088,16.536C16.75,17.306 13.47,23.698 13.988,31.485C13.988,31.485 16.63,49.757 32.733,49.757C48.828,49.757 57.713,41.659 58.498,24.017C59.268,6.355 48.866,-12.594 23.819,-12.85C-1.225,-13.107 -16.271,7.398 -16.536,23.479C-16.804,39.593 -7.447,69.698 -7.447,78.011C-7.447,86.313 -3.18,102.001 -10.454,112.387C-5.782,113.181 5.783,120.844 9.939,126.291C14.1,131.736 19.808,139.006 19.025,155.64C18.251,172.245 10.207,180.551 10.207,180.551C10.207,180.551 -0.956,173.799 -11.356,169.386C-21.734,164.969 -22.776,163.412 -32.374,163.164C-41.977,162.895 -47.173,169.386 -46.909,176.397C-46.643,183.408 -34.694,201.198 -9.534,200.278C11.759,199.513 14.1,192.753 14.1,192.753C14.1,192.753 22.922,200.823 41.61,200.287C60.304,199.76 89.131,184.691 86.362,169.094" style="fill:rgb(164,40,47);fill-rule:nonzero;"></path>
            </g>
            <g transform="matrix(1,0,0,1,330.739,299.31)">
                <path d="M0,-41.357L7.775,-41.357L5.356,-7.614C5.356,-7.614 4.32,-1.216 3.888,-0.172C0.508,0 -3.981,-0.172 -3.981,-0.172C-3.981,-0.172 -2.596,-2.431 -1.911,-5.704C-1.213,-8.993 -0.519,-36.694 0,-41.357" style="fill:rgb(164,40,47);fill-rule:nonzero;"></path>
            </g>
            <g transform="matrix(1,0,0,1,342.503,299.31)">
                <path d="M0,-41.357L7.791,-41.357L5.367,-7.614C5.367,-7.614 4.331,-1.216 3.898,-0.172C0.518,0 -3.988,-0.172 -3.988,-0.172C-3.988,-0.172 -2.59,-2.431 -1.911,-5.704C-1.202,-8.993 -0.525,-36.694 0,-41.357" style="fill:rgb(164,40,47);fill-rule:nonzero;"></path>
            </g>
            <g transform="matrix(1,0,0,1,354.267,299.31)">
                <path d="M0,-41.357L7.801,-41.357L5.374,-7.614C5.374,-7.614 4.338,-1.216 3.898,-0.172C0.538,0 -3.974,-0.172 -3.974,-0.172C-3.974,-0.172 -2.585,-2.431 -1.897,-5.704C-1.202,-8.993 -0.511,-36.694 0,-41.357" style="fill:rgb(164,40,47);fill-rule:nonzero;"></path>
            </g>
            <g transform="matrix(-1,0,0,1,317.083,257.96)">
                <path d="M18.046,41.761L26.571,41.761L0.015,0L-8.525,0L18.046,41.761Z" style="fill:rgb(164,40,47);fill-rule:nonzero;"></path>
            </g>
            <g transform="matrix(1,0,0,1,317.068,257.96)">
                <path d="M0,41.761L8.54,41.761L-18.031,0L-26.557,0L0,41.761Z" style="fill:rgb(164,40,47);fill-rule:nonzero;"></path>
            </g>
            <g transform="matrix(1,0,0,1,160.089,190.299)">
                <path d="M0,-7.712C0.48,-8.021 0.726,-8.221 0.745,-8.26C0.845,-8.374 0.896,-8.491 0.905,-8.636C0.936,-8.765 0.896,-8.91 0.8,-9.052L0.996,-9.28L3.554,-7.35L3.342,-7.099C2.725,-7.354 2.178,-7.483 1.683,-7.494C0.745,-7.505 -0.031,-7.136 -0.669,-6.379C-1.302,-5.595 -1.507,-4.719 -1.302,-3.73C-1.097,-2.737 -0.455,-1.814 0.617,-0.939C1.6,-0.13 2.588,0.261 3.599,0.224C4.612,0.192 5.435,-0.22 6.072,-1.013C6.545,-1.575 6.835,-2.217 6.973,-2.925C7.031,-3.318 7.04,-3.825 7.009,-4.399L7.382,-4.442C7.487,-3.939 7.502,-3.42 7.434,-2.857C7.328,-1.917 6.986,-1.091 6.392,-0.37C5.421,0.813 4.27,1.431 2.939,1.505C1.723,1.568 0.586,1.186 -0.455,0.329C-1.529,-0.562 -2.139,-1.63 -2.321,-2.901C-2.495,-4.249 -2.124,-5.487 -1.187,-6.626C-0.852,-7.022 -0.455,-7.384 0,-7.712" style="fill:rgb(19,61,107);fill-rule:nonzero;"></path>
            </g>
            <g transform="matrix(1,0,0,1,172.653,180.946)">
                <path d="M0,-3.566L-3.941,-5.154L-2.307,-1.242L0,-3.566ZM-1.703,3.371L-1.903,3.182C-1.658,2.891 -1.569,2.602 -1.62,2.305C-1.649,2.01 -1.895,1.343 -2.307,0.278L-5.205,-6.737L-5.009,-6.937L3.229,-3.793C3.767,-3.582 4.139,-3.492 4.33,-3.497C4.521,-3.517 4.749,-3.611 5.008,-3.818L5.204,-3.64L2.664,-1.054L2.475,-1.248C2.738,-1.566 2.892,-1.8 2.938,-1.908C2.983,-2.045 2.938,-2.169 2.792,-2.325C2.747,-2.373 2.642,-2.437 2.475,-2.532C2.323,-2.621 2.146,-2.699 1.955,-2.773L0.569,-3.334L-2.057,-0.65C-1.658,0.26 -1.401,0.819 -1.316,1.008C-1.21,1.207 -1.119,1.343 -1.043,1.422C-0.874,1.594 -0.678,1.641 -0.484,1.562C-0.352,1.526 -0.16,1.389 0.085,1.172L0.268,1.355L-1.703,3.371Z" style="fill:rgb(19,61,107);fill-rule:nonzero;"></path>
            </g>
            <g transform="matrix(1,0,0,1,178.877,166.145)">
                <path d="M0,6.407C0.598,6.749 1.145,6.942 1.645,7.016C2.488,7.159 3.245,6.954 3.89,6.413C4.232,6.123 4.433,5.747 4.498,5.317C4.569,4.881 4.433,4.477 4.097,4.083C3.793,3.731 3.41,3.531 2.933,3.483C2.622,3.464 2.063,3.509 1.25,3.639L-0.166,3.85C-0.592,3.905 -0.966,3.925 -1.287,3.874C-1.88,3.793 -2.364,3.56 -2.717,3.139C-3.172,2.593 -3.386,1.989 -3.332,1.317C-3.285,0.636 -2.959,0.052 -2.349,-0.466C-2.101,-0.68 -1.771,-0.864 -1.299,-1.04C-0.852,-1.23 -0.607,-1.331 -0.562,-1.364C-0.425,-1.485 -0.362,-1.593 -0.362,-1.696C-0.362,-1.813 -0.394,-1.941 -0.47,-2.07L-0.248,-2.254L1.964,-0.157L1.691,0.063C0.922,-0.483 0.23,-0.728 -0.385,-0.665C-1.02,-0.609 -1.521,-0.421 -1.902,-0.093C-2.195,0.16 -2.38,0.462 -2.457,0.835C-2.518,1.196 -2.427,1.524 -2.168,1.835C-1.925,2.126 -1.626,2.279 -1.299,2.342C-0.952,2.395 -0.516,2.385 0.022,2.293L1.48,2.06C2.377,1.925 3.092,1.9 3.606,2.007C4.097,2.108 4.523,2.374 4.91,2.786C5.383,3.366 5.579,4.015 5.464,4.77C5.369,5.512 4.979,6.169 4.311,6.749C3.982,7.028 3.579,7.256 3.105,7.452C2.636,7.626 2.368,7.747 2.322,7.794C2.186,7.893 2.141,8.012 2.163,8.132C2.178,8.231 2.232,8.348 2.277,8.445L2.041,8.661L-0.248,6.618L0,6.407Z" style="fill:rgb(19,61,107);fill-rule:nonzero;"></path>
            </g>
            <g transform="matrix(1,0,0,1,191.22,164.179)">
                <path d="M0,-2.383L-3.612,-4.621L-2.661,-0.482L0,-2.383ZM-2.86,4.164L-3.015,3.945C-2.747,3.693 -2.602,3.419 -2.585,3.129C-2.563,2.833 -2.693,2.126 -2.93,1.021L-4.594,-6.392L-4.375,-6.547L3.212,-2.059C3.723,-1.757 4.059,-1.604 4.249,-1.592C4.439,-1.569 4.69,-1.637 4.986,-1.797L5.131,-1.569L2.21,0.538L2.048,0.322C2.338,0.048 2.558,-0.147 2.612,-0.254C2.68,-0.376 2.657,-0.504 2.538,-0.68C2.492,-0.743 2.398,-0.818 2.256,-0.938C2.124,-1.057 1.957,-1.164 1.797,-1.273L0.533,-2.047L-2.524,0.131C-2.276,1.103 -2.128,1.693 -2.069,1.893C-2.009,2.109 -1.941,2.261 -1.864,2.353C-1.741,2.562 -1.551,2.638 -1.354,2.594C-1.207,2.576 -1.013,2.469 -0.723,2.306L-0.569,2.515L-2.86,4.164Z" style="fill:rgb(19,61,107);fill-rule:nonzero;"></path>
            </g>
            <g transform="matrix(1,0,0,1,203.093,149.259)">
                <path d="M0,5.909C0.518,6.364 1.006,6.677 1.477,6.859C2.274,7.177 3.044,7.127 3.79,6.728C4.193,6.517 4.459,6.199 4.627,5.804C4.771,5.379 4.735,4.955 4.483,4.496C4.271,4.098 3.935,3.819 3.48,3.671C3.18,3.576 2.625,3.517 1.788,3.474L0.373,3.371C-0.062,3.346 -0.433,3.281 -0.731,3.177C-1.302,2.97 -1.714,2.626 -1.977,2.144C-2.315,1.517 -2.396,0.872 -2.198,0.236C-2.002,-0.414 -1.561,-0.925 -0.86,-1.301C-0.577,-1.466 -0.196,-1.574 0.288,-1.649C0.764,-1.711 1.023,-1.78 1.083,-1.801C1.247,-1.889 1.324,-1.978 1.347,-2.09C1.361,-2.192 1.361,-2.328 1.311,-2.473L1.574,-2.627L3.288,-0.102L2.99,0.066C2.344,-0.628 1.72,-1.01 1.088,-1.078C0.48,-1.152 -0.052,-1.073 -0.501,-0.851C-0.845,-0.657 -1.097,-0.395 -1.232,-0.054C-1.369,0.282 -1.355,0.624 -1.146,0.988C-0.982,1.319 -0.746,1.536 -0.427,1.664C-0.097,1.789 0.333,1.865 0.9,1.9L2.344,1.982C3.271,2.039 3.963,2.167 4.445,2.364C4.914,2.577 5.281,2.919 5.54,3.409C5.904,4.072 5.942,4.759 5.677,5.459C5.427,6.174 4.923,6.728 4.14,7.144C3.77,7.349 3.317,7.497 2.816,7.588C2.313,7.66 2.03,7.716 1.962,7.759C1.811,7.822 1.743,7.93 1.743,8.038C1.743,8.157 1.766,8.277 1.788,8.385L1.515,8.536L-0.296,6.067L0,5.909Z" style="fill:rgb(19,61,107);fill-rule:nonzero;"></path>
            </g>
            <g transform="matrix(1,0,0,1,217.378,148.066)">
                <path d="M0,-0.795L-3.081,-3.745L-3.013,0.509L0,-0.795ZM-4.186,4.995L-4.29,4.759C-3.963,4.576 -3.768,4.34 -3.693,4.056C-3.616,3.759 -3.585,3.047 -3.599,1.909L-3.647,-5.68L-3.385,-5.79L3.074,0.209C3.511,0.597 3.813,0.824 3.98,0.896C4.171,0.953 4.43,0.935 4.74,0.847L4.849,1.088L1.531,2.535L1.415,2.291C1.797,2.079 2.016,1.937 2.115,1.835C2.191,1.738 2.191,1.596 2.115,1.422C2.093,1.342 2.033,1.236 1.91,1.103C1.797,0.957 1.669,0.812 1.507,0.674L0.441,-0.354L-2.998,1.14C-2.961,2.131 -2.947,2.74 -2.93,2.951C-2.916,3.184 -2.885,3.338 -2.839,3.452C-2.738,3.668 -2.579,3.781 -2.366,3.795C-2.238,3.799 -1.999,3.742 -1.688,3.635L-1.592,3.873L-4.186,4.995Z" style="fill:rgb(19,61,107);fill-rule:nonzero;"></path>
            </g>
            <g transform="matrix(1,0,0,1,225.039,138.13)">
                <path d="M0,9.703C0.476,9.48 0.777,9.293 0.883,9.111C0.982,8.949 0.955,8.604 0.791,8.098L-1.2,2.085C-1.366,1.605 -1.534,1.312 -1.733,1.219C-1.947,1.117 -2.271,1.128 -2.799,1.259L-2.884,1.002L0.946,-0.25L1.023,0.004C0.527,0.2 0.23,0.387 0.095,0.57C-0.022,0.758 -0.014,1.094 0.14,1.538L2.293,8.032C2.341,8.183 2.4,8.297 2.478,8.359C2.554,8.422 2.68,8.445 2.864,8.411C2.971,8.386 3.078,8.365 3.183,8.332C3.306,8.297 3.509,8.228 3.821,8.123C5.025,7.726 5.8,7.363 6.167,7.021C6.531,6.685 6.759,6.037 6.896,5.092L7.232,4.983L7.355,7.537L0.077,9.953L0,9.703Z" style="fill:rgb(19,61,107);fill-rule:nonzero;"></path>
            </g>
            <g transform="matrix(1,0,0,1,235.961,133.928)">
                <path d="M0,10.437C0.487,10.25 0.8,10.067 0.931,9.916C1.053,9.748 1.053,9.407 0.922,8.883L-0.564,2.733C-0.678,2.244 -0.819,1.933 -1.02,1.821C-1.202,1.719 -1.561,1.694 -2.075,1.776L-2.144,1.52L5.221,-0.245L5.734,1.719L5.39,1.799C5.131,1.235 4.856,0.871 4.575,0.751C4.302,0.629 3.753,0.652 2.944,0.848L1.06,1.301C0.854,1.362 0.74,1.422 0.708,1.5C0.672,1.578 0.672,1.719 0.732,1.884L1.463,4.983L3.602,4.469C4.18,4.321 4.543,4.14 4.667,3.928C4.786,3.707 4.829,3.323 4.803,2.762L5.131,2.693L5.883,5.893L5.572,5.961C5.336,5.46 5.131,5.125 4.908,4.998C4.709,4.864 4.324,4.871 3.738,5.005L1.606,5.524L2.42,8.946C2.489,9.224 2.61,9.368 2.81,9.372C2.976,9.378 3.51,9.282 4.37,9.071C5.312,8.849 5.981,8.57 6.378,8.262C6.781,7.955 7.055,7.363 7.237,6.48L7.61,6.395L7.548,8.883L0.06,10.682L0,10.437Z" style="fill:rgb(19,61,107);fill-rule:nonzero;"></path>
            </g>
            <g transform="matrix(1,0,0,1,247.468,134.586)">
                <path d="M0,4.541C0.35,5.142 0.692,5.589 1.079,5.925C1.729,6.489 2.474,6.705 3.303,6.577C3.759,6.5 4.126,6.3 4.39,5.964C4.678,5.629 4.795,5.219 4.703,4.697C4.633,4.248 4.39,3.868 4.025,3.584C3.773,3.397 3.271,3.157 2.512,2.827L1.192,2.269C0.798,2.093 0.474,1.911 0.237,1.706C-0.236,1.335 -0.518,0.866 -0.601,0.333C-0.718,-0.373 -0.571,-1.011 -0.168,-1.552C0.237,-2.093 0.798,-2.424 1.584,-2.555C1.901,-2.6 2.311,-2.589 2.775,-2.497C3.257,-2.411 3.525,-2.366 3.591,-2.381C3.773,-2.411 3.881,-2.472 3.935,-2.555C3.986,-2.651 4.025,-2.77 4.032,-2.933L4.322,-2.978L5.1,-0.028L4.764,0.02C4.385,-0.846 3.935,-1.415 3.363,-1.694C2.802,-1.979 2.275,-2.081 1.788,-1.993C1.393,-1.939 1.079,-1.773 0.811,-1.501C0.57,-1.235 0.479,-0.892 0.541,-0.489C0.601,-0.134 0.751,0.168 1.025,0.378C1.278,0.609 1.66,0.835 2.161,1.062L3.517,1.608C4.367,1.972 4.991,2.32 5.35,2.665C5.746,3.026 5.974,3.476 6.065,4.028C6.173,4.763 5.987,5.427 5.509,6.005C5.036,6.589 4.362,6.941 3.502,7.081C3.066,7.143 2.602,7.129 2.098,7.041C1.606,6.944 1.324,6.91 1.246,6.933C1.079,6.944 0.974,7.012 0.934,7.129C0.889,7.234 0.868,7.355 0.868,7.474L0.555,7.519L-0.319,4.587L0,4.541Z" style="fill:rgb(19,61,107);fill-rule:nonzero;"></path>
            </g>
            <g transform="matrix(1,0,0,1,257.79,131.089)">
                <path d="M0,9.211C0.577,9.126 0.937,8.995 1.102,8.852C1.262,8.716 1.315,8.363 1.269,7.822L0.7,1.508C0.651,0.989 0.532,0.652 0.355,0.52C0.165,0.393 -0.209,0.322 -0.786,0.351L-0.817,0.096L3.385,-0.275L3.398,-0.019C2.82,0.049 2.465,0.191 2.303,0.346C2.144,0.517 2.09,0.857 2.135,1.379L2.705,7.686C2.747,8.221 2.869,8.57 3.049,8.676C3.231,8.79 3.612,8.847 4.198,8.833L4.222,9.104L0.031,9.486L0,9.211Z" style="fill:rgb(19,61,107);fill-rule:nonzero;"></path>
            </g>
            <g transform="matrix(1,0,0,1,271.279,134.003)">
                <path d="M0,2.156L-1.68,-1.739L-3.265,2.219L0,2.156ZM-6.061,5.91L-6.079,5.656C-5.706,5.608 -5.433,5.46 -5.251,5.22C-5.064,4.982 -4.771,4.338 -4.342,3.285L-1.48,-3.754L-1.202,-3.754L2.457,4.258C2.719,4.796 2.901,5.124 3.046,5.244C3.196,5.375 3.425,5.449 3.767,5.488L3.775,5.756L0.162,5.818L0.14,5.543C0.567,5.505 0.837,5.46 0.953,5.403C1.068,5.345 1.127,5.22 1.127,5.005C1.127,4.941 1.096,4.816 1.051,4.648C0.999,4.467 0.931,4.287 0.855,4.093L0.26,2.73L-3.499,2.8C-3.85,3.717 -4.055,4.304 -4.132,4.513C-4.199,4.715 -4.237,4.867 -4.237,4.99C-4.237,5.237 -4.125,5.396 -3.94,5.488C-3.813,5.543 -3.582,5.588 -3.24,5.608L-3.24,5.869L-6.061,5.91Z" style="fill:rgb(19,61,107);fill-rule:nonzero;"></path>
            </g>
            <g transform="matrix(1,0,0,1,278.182,131.55)">
                <path d="M0,8.041C0.593,8.021 0.975,7.913 1.165,7.733C1.34,7.535 1.47,7.064 1.529,6.307L2.011,0.059L1.835,-0.184C1.644,-0.446 1.47,-0.605 1.331,-0.68C1.202,-0.736 0.975,-0.791 0.678,-0.827L0.716,-1.086L3.135,-0.913L8.089,6.307L8.456,1.598C8.507,0.813 8.426,0.299 8.225,0.056C8.089,-0.11 7.739,-0.23 7.222,-0.318L7.26,-0.584L10.587,-0.332L10.559,-0.068C10.023,-0.053 9.653,0.056 9.468,0.249C9.254,0.437 9.131,0.914 9.07,1.654L8.502,9.127L8.242,9.098L2.589,0.838L2.162,6.363C2.09,7.148 2.18,7.645 2.381,7.902C2.512,8.078 2.84,8.203 3.34,8.289L3.326,8.563L-0.014,8.305L0,8.041Z" style="fill:rgb(19,61,107);fill-rule:nonzero;"></path>
            </g>
            <g transform="matrix(1,0,0,1,297.83,136.599)">
                <path d="M0,1.84L-0.933,-2.289L-3.224,1.293L0,1.84ZM-6.664,4.403L-6.619,4.139C-6.247,4.156 -5.94,4.078 -5.736,3.866C-5.513,3.673 -5.09,3.092 -4.472,2.147L-0.38,-4.236L-0.091,-4.188L2.034,4.379C2.178,4.932 2.299,5.296 2.414,5.438C2.535,5.592 2.756,5.72 3.083,5.825L3.038,6.076L-0.528,5.467L-0.493,5.204C-0.065,5.227 0.201,5.227 0.332,5.204C0.458,5.17 0.543,5.056 0.578,4.852C0.578,4.78 0.578,4.664 0.564,4.477C0.556,4.297 0.511,4.106 0.473,3.9L0.131,2.451L-3.551,1.813C-4.079,2.67 -4.391,3.199 -4.494,3.377C-4.607,3.567 -4.673,3.725 -4.692,3.842C-4.738,4.078 -4.662,4.256 -4.472,4.385C-4.381,4.452 -4.159,4.537 -3.833,4.623L-3.888,4.883L-6.664,4.403Z" style="fill:rgb(19,61,107);fill-rule:nonzero;"></path>
            </g>
            <g transform="matrix(1,0,0,1,309.338,138.28)">
                <path d="M0,6.211C0.511,6.313 0.86,6.33 1.056,6.245C1.232,6.171 1.408,5.874 1.566,5.367L3.44,-0.684C3.594,-1.164 3.616,-1.5 3.523,-1.698C3.417,-1.891 3.118,-2.086 2.636,-2.273L2.711,-2.531L6.549,-1.335L6.463,-1.087C5.975,-1.215 5.596,-1.231 5.387,-1.158C5.17,-1.072 5.007,-0.793 4.858,-0.351L2.831,6.174C2.781,6.342 2.761,6.461 2.794,6.559C2.816,6.666 2.912,6.745 3.083,6.826C3.174,6.871 3.279,6.916 3.385,6.957C3.511,6.99 3.731,7.065 4.028,7.162C5.235,7.531 6.088,7.689 6.573,7.628C7.054,7.551 7.625,7.173 8.289,6.482L8.631,6.587L7.237,8.742L-0.081,6.467L0,6.211Z" style="fill:rgb(19,61,107);fill-rule:nonzero;"></path>
            </g>
            <g transform="matrix(1,0,0,1,320.242,142.653)">
                <path d="M0,5.363C0.505,5.505 0.86,5.546 1.036,5.483C1.228,5.426 1.443,5.14 1.645,4.645L4.021,-1.217C4.205,-1.686 4.265,-2.043 4.18,-2.222C4.089,-2.438 3.813,-2.64 3.332,-2.87L3.436,-3.126L10.441,-0.298L9.723,1.616L9.4,1.485C9.514,0.859 9.501,0.421 9.345,0.159C9.194,-0.116 8.722,-0.4 7.962,-0.71L6.156,-1.433C5.97,-1.517 5.824,-1.534 5.754,-1.49C5.693,-1.445 5.618,-1.333 5.558,-1.171L4.36,1.778L6.402,2.6C6.966,2.835 7.354,2.891 7.574,2.79C7.793,2.692 8.058,2.399 8.349,1.928L8.661,2.059L7.429,5.113L7.119,4.969C7.242,4.426 7.242,4.04 7.152,3.809C7.047,3.575 6.737,3.35 6.187,3.12L4.145,2.307L2.826,5.577C2.726,5.838 2.741,6.02 2.895,6.132C3.03,6.249 3.523,6.473 4.355,6.811C5.246,7.174 5.937,7.334 6.437,7.319C6.94,7.294 7.52,6.973 8.176,6.359L8.54,6.505L7.031,8.489L-0.091,5.607L0,5.363Z" style="fill:rgb(19,61,107);fill-rule:nonzero;"></path>
            </g>
            <g transform="matrix(1,0,0,1,333.752,148.706)">
                <path d="M0,3.947C0.196,4.856 0.679,5.505 1.453,5.892C2.203,6.279 2.997,6.296 3.845,5.955C4.697,5.595 5.472,4.735 6.179,3.375C6.87,2.003 7.122,0.852 6.896,-0.033C6.674,-0.916 6.193,-1.562 5.472,-1.932C4.702,-2.319 3.878,-2.336 3.038,-1.969C2.19,-1.594 1.423,-0.744 0.739,0.591C0.055,1.923 -0.199,3.045 0,3.947M2.235,-2.752C3.399,-3.094 4.552,-2.974 5.693,-2.381C6.835,-1.81 7.603,-0.927 7.989,0.215C8.425,1.463 8.304,2.755 7.603,4.118C6.896,5.487 5.904,6.356 4.612,6.726C3.445,7.041 2.314,6.927 1.202,6.356C0.025,5.744 -0.76,4.832 -1.117,3.625C-1.509,2.402 -1.363,1.142 -0.699,-0.136C-0.008,-1.499 0.976,-2.365 2.235,-2.752" style="fill:rgb(19,61,107);fill-rule:nonzero;"></path>
            </g>
            <g transform="matrix(1,0,0,1,342.314,155.733)">
                <path d="M0,2.725C0.523,2.985 0.913,3.095 1.18,3.004C1.416,2.93 1.751,2.566 2.158,1.935L5.53,-3.353L5.478,-3.652C5.45,-3.97 5.38,-4.199 5.281,-4.33C5.196,-4.455 5.037,-4.591 4.781,-4.765L4.936,-4.978L6.969,-3.674L7.944,5.02L10.478,1.035C10.904,0.385 11.081,-0.11 11.018,-0.434C10.963,-0.634 10.746,-0.91 10.318,-1.236L10.465,-1.452L13.271,0.352L13.141,0.571C12.638,0.317 12.268,0.246 12.009,0.317C11.732,0.397 11.395,0.755 11.008,1.381L6.969,7.703L6.772,7.561L5.661,-2.402L2.679,2.264C2.256,2.93 2.085,3.414 2.158,3.734C2.184,3.944 2.402,4.211 2.814,4.537L2.679,4.755L-0.138,2.955L0,2.725Z" style="fill:rgb(19,61,107);fill-rule:nonzero;"></path>
            </g>
            <g transform="matrix(1,0,0,1,358.263,169.131)">
                <path d="M0,0.312C0.31,0.521 0.608,0.642 0.86,0.642C1.109,0.654 1.697,0.575 2.633,0.404L6.064,-0.245L6.362,-2.985C6.486,-4.184 6.546,-4.965 6.486,-5.336C6.431,-5.695 6.239,-6.038 5.898,-6.35L6.073,-6.555L9.33,-3.758L9.147,-3.56C8.835,-3.817 8.613,-3.975 8.493,-4.026C8.302,-4.1 8.144,-4.055 8.015,-3.905C7.93,-3.805 7.869,-3.655 7.814,-3.456C7.799,-3.366 7.769,-3.251 7.764,-3.086L7.497,-0.524L9.972,-0.958C10.334,-1.026 10.59,-1.094 10.776,-1.173C10.877,-1.213 10.957,-1.265 11.013,-1.328C11.141,-1.484 11.158,-1.657 11.043,-1.843C10.982,-1.954 10.832,-2.119 10.59,-2.338L10.754,-2.529L13.318,-0.342L13.135,-0.143C12.854,-0.385 12.587,-0.531 12.354,-0.587C11.979,-0.655 11.423,-0.632 10.655,-0.491L7.419,0.136L6.934,4.856C6.873,5.363 6.873,5.716 6.948,5.927C7.031,6.14 7.191,6.388 7.427,6.667L7.261,6.867L4.071,4.147L4.245,3.939C4.567,4.201 4.804,4.352 4.962,4.421C5.113,4.475 5.269,4.432 5.372,4.304C5.465,4.187 5.551,3.937 5.604,3.53C5.676,3.137 5.8,2.082 5.995,0.404L3.357,0.908C2.96,0.984 2.689,1.041 2.521,1.086C2.266,1.164 2.093,1.244 2.027,1.327C1.889,1.482 1.889,1.662 2.027,1.883C2.093,2.014 2.261,2.209 2.497,2.437L2.321,2.644L-0.168,0.505L0,0.312Z" style="fill:rgb(19,61,107);fill-rule:nonzero;"></path>
            </g>
            <g transform="matrix(1,0,0,1,368.071,174.79)">
                <path d="M0,3.324C0.436,3.701 0.755,3.912 0.983,3.939C1.195,3.969 1.497,3.783 1.874,3.393L6.335,-1.1C6.713,-1.473 6.896,-1.754 6.873,-1.988C6.844,-2.221 6.647,-2.54 6.26,-2.982L6.431,-3.166L9.438,-0.2L9.253,-0.004C8.825,-0.394 8.488,-0.599 8.252,-0.61C8.038,-0.615 7.743,-0.444 7.361,-0.074L2.907,4.412C2.52,4.805 2.332,5.107 2.369,5.317C2.382,5.54 2.599,5.859 2.98,6.297L2.802,6.49L-0.188,3.524L0,3.324Z" style="fill:rgb(19,61,107);fill-rule:nonzero;"></path>
            </g>
            <g transform="matrix(1,0,0,1,373.347,180.678)">
                <path d="M0,2.823C0.41,3.228 0.737,3.45 0.951,3.485C1.154,3.524 1.469,3.359 1.863,2.995L6.576,-1.244C6.969,-1.595 7.17,-1.891 7.16,-2.118C7.152,-2.329 6.979,-2.688 6.599,-3.136L6.798,-3.314L9.609,-0.183L9.439,-0.005C9.011,-0.415 8.704,-0.632 8.478,-0.661C8.233,-0.69 7.937,-0.524 7.542,-0.177L2.855,4.071C2.442,4.444 2.236,4.735 2.243,4.936C2.283,5.165 2.467,5.494 2.824,5.95L2.623,6.137L-0.196,2.995L0,2.823Z" style="fill:rgb(19,61,107);fill-rule:nonzero;"></path>
            </g>
            <g transform="matrix(1,0,0,1,378.347,186.854)">
                <path d="M0,2.308C0.387,2.741 0.696,2.979 0.898,3.025C1.108,3.077 1.436,2.934 1.858,2.58L6.777,-1.396C7.19,-1.724 7.4,-2.005 7.413,-2.236C7.413,-2.453 7.26,-2.797 6.908,-3.279L7.109,-3.45L9.77,-0.16L9.566,-0.009C9.166,-0.431 8.864,-0.665 8.644,-0.71C8.425,-0.748 8.09,-0.596 7.683,-0.275L2.769,3.713C2.336,4.049 2.13,4.34 2.138,4.545C2.138,4.768 2.315,5.11 2.643,5.587L2.437,5.758L-0.209,2.485L0,2.308Z" style="fill:rgb(19,61,107);fill-rule:nonzero;"></path>
            </g>
            <g transform="matrix(1,0,0,1,179.258,384.934)">
                <path d="M0,2.336C0,3.262 0.322,4.006 0.977,4.555C1.624,5.093 2.39,5.283 3.302,5.133C4.202,4.977 5.153,4.313 6.133,3.136C7.123,1.943 7.619,0.888 7.588,-0.03C7.573,-0.943 7.245,-1.657 6.614,-2.195C5.959,-2.749 5.176,-2.933 4.263,-2.749C3.357,-2.591 2.421,-1.934 1.446,-0.785C0.487,0.382 0.017,1.405 0,2.336M3.653,-3.699C4.849,-3.78 5.959,-3.415 6.936,-2.603C7.932,-1.77 8.488,-0.762 8.624,0.45C8.761,1.766 8.351,3.008 7.383,4.162C6.378,5.344 5.227,5.985 3.883,6.048C2.68,6.116 1.6,5.751 0.646,4.941C-0.381,4.089 -0.942,3.035 -1.033,1.773C-1.133,0.495 -0.721,-0.707 0.217,-1.809C1.183,-2.971 2.338,-3.599 3.653,-3.699" style="fill:rgb(19,61,107);fill-rule:nonzero;"></path>
            </g>
            <g transform="matrix(1,0,0,1,194.51,392.715)">
                <path d="M0,1.131C0.662,1.254 1.186,1.013 1.605,0.409C2.086,-0.287 2.115,-0.954 1.719,-1.593C1.491,-1.939 1.047,-2.347 0.401,-2.787C0.158,-2.958 0,-3.031 -0.092,-3.031C-0.175,-3.031 -0.291,-2.931 -0.414,-2.747L-2.23,-0.089L-1.103,0.651C-0.707,0.928 -0.337,1.078 0,1.131M-2.156,5.1C-1.614,5.148 -1.08,4.838 -0.633,4.177C-0.183,3.518 -0.105,2.909 -0.419,2.338C-0.718,1.777 -1.242,1.244 -1.98,0.736C-2.156,0.626 -2.27,0.532 -2.315,0.5C-2.366,0.465 -2.439,0.409 -2.529,0.344L-4.542,3.272C-4.682,3.473 -4.718,3.644 -4.644,3.782C-4.567,3.92 -4.326,4.131 -3.904,4.418C-3.304,4.838 -2.711,5.055 -2.156,5.1M-7.335,2.371C-6.851,2.668 -6.486,2.804 -6.273,2.776C-6.045,2.758 -5.792,2.522 -5.479,2.087L-1.889,-3.132C-1.614,-3.561 -1.479,-3.891 -1.538,-4.112C-1.583,-4.334 -1.843,-4.623 -2.308,-4.962L-2.156,-5.188L1.138,-2.931C2.086,-2.286 2.716,-1.625 3.057,-0.933C3.401,-0.26 3.315,0.447 2.815,1.19C2.433,1.755 1.952,2.036 1.377,2.054C1.032,2.074 0.631,1.984 0.108,1.787C0.568,2.296 0.876,2.823 1.044,3.392C1.215,3.955 1.124,4.519 0.754,5.055C0.11,5.973 -0.732,6.319 -1.826,6.066C-2.392,5.952 -2.999,5.658 -3.654,5.205L-7.483,2.595L-7.335,2.371Z" style="fill:rgb(19,61,107);fill-rule:nonzero;"></path>
            </g>
            <g transform="matrix(1,0,0,1,204.523,400.844)">
                <path d="M0,-0.563C0.8,-0.462 1.417,-0.799 1.842,-1.534C2.24,-2.255 2.209,-2.912 1.772,-3.507C1.54,-3.817 1.15,-4.129 0.64,-4.428C0.29,-4.617 0.07,-4.714 -0.045,-4.703C-0.16,-4.692 -0.259,-4.612 -0.358,-4.413L-2.076,-1.358C-1.155,-0.879 -0.48,-0.629 0,-0.563M-6.657,1.361C-6.161,1.59 -5.806,1.656 -5.614,1.59C-5.416,1.517 -5.177,1.217 -4.878,0.705L-1.885,-4.677C-1.626,-5.115 -1.526,-5.436 -1.581,-5.648C-1.644,-5.844 -1.885,-6.1 -2.32,-6.387L-2.193,-6.629L1.25,-4.692C1.959,-4.29 2.52,-3.868 2.887,-3.422C3.602,-2.575 3.698,-1.679 3.183,-0.766C2.847,-0.156 2.36,0.219 1.788,0.323C1.204,0.413 0.526,0.335 -0.219,0.056L0.563,4.633C0.624,4.919 0.7,5.151 0.813,5.334C0.914,5.5 1.099,5.676 1.315,5.835L1.195,6.066L-0.806,4.947L-1.779,-0.629L-2.34,-0.892L-3.704,1.549C-3.957,2.01 -4.054,2.344 -3.986,2.545C-3.918,2.732 -3.65,3.005 -3.218,3.295L-3.34,3.524L-6.788,1.595L-6.657,1.361Z" style="fill:rgb(19,61,107);fill-rule:nonzero;"></path>
            </g>
            <g transform="matrix(1,0,0,1,216.288,406.673)">
                <path d="M0,1.133L0.088,-3.117L-2.986,-0.192L0,1.133ZM-7.085,1.993L-6.977,1.765C-6.612,1.87 -6.315,1.853 -6.049,1.717C-5.797,1.57 -5.242,1.12 -4.414,0.344L1.135,-4.854L1.386,-4.741L1.362,4.073C1.362,4.653 1.403,5.041 1.478,5.212C1.548,5.394 1.738,5.549 2.026,5.74L1.933,5.987L-1.39,4.518L-1.284,4.267C-0.89,4.403 -0.621,4.468 -0.502,4.468C-0.362,4.468 -0.263,4.375 -0.171,4.192C-0.143,4.126 -0.112,4.005 -0.092,3.829C-0.065,3.653 -0.047,3.446 -0.034,3.235L-0.021,1.765L-3.439,0.237C-4.152,0.947 -4.587,1.385 -4.741,1.528C-4.875,1.692 -4.975,1.832 -5.034,1.941C-5.128,2.159 -5.111,2.356 -4.966,2.501C-4.875,2.612 -4.685,2.742 -4.392,2.903L-4.497,3.14L-7.085,1.993Z" style="fill:rgb(19,61,107);fill-rule:nonzero;"></path>
            </g>
            <g transform="matrix(1,0,0,1,230.477,408.252)">
                <path d="M0,7.926C0.088,8.024 0.293,8.135 0.629,8.215C1.703,8.522 2.653,8.557 3.462,8.331C4.709,7.994 5.555,7.021 6.002,5.448C6.392,4.04 6.252,2.856 5.586,1.898C5.014,1.083 4.1,0.499 2.867,0.148C2.563,0.06 2.34,0.052 2.221,0.062C2.081,0.103 1.981,0.233 1.933,0.467L-0.058,7.431C-0.108,7.651 -0.092,7.828 0,7.926M-2.882,7.49C-2.36,7.602 -2.004,7.602 -1.822,7.506C-1.632,7.431 -1.473,7.134 -1.31,6.62L0.415,0.52C0.546,0.022 0.561,-0.32 0.455,-0.507C0.348,-0.678 0.051,-0.871 -0.445,-1.047L-0.376,-1.311L3.317,-0.263C4.561,0.097 5.555,0.593 6.306,1.254C7.635,2.426 8.049,3.97 7.493,5.862C7.319,6.54 6.993,7.147 6.536,7.687C6.078,8.215 5.522,8.622 4.845,8.889C4.403,9.06 3.969,9.151 3.554,9.168C2.781,9.237 1.876,9.128 0.848,8.839L-2.956,7.757L-2.882,7.49Z" style="fill:rgb(19,61,107);fill-rule:nonzero;"></path>
            </g>
            <g transform="matrix(1,0,0,1,240.855,411.939)">
                <path d="M0,7.36C0.509,7.39 0.859,7.36 1.033,7.264C1.218,7.154 1.355,6.841 1.454,6.313L2.61,0.094C2.702,-0.411 2.695,-0.738 2.564,-0.924C2.443,-1.1 2.123,-1.261 1.628,-1.387L1.668,-1.649L9.103,-0.27L8.774,1.752L8.418,1.672C8.418,1.033 8.31,0.6 8.12,0.379C7.914,0.157 7.391,-0.036 6.582,-0.18L4.675,-0.541C4.461,-0.582 4.339,-0.575 4.27,-0.517C4.207,-0.464 4.162,-0.346 4.116,-0.164L3.547,2.966L5.705,3.361C6.309,3.482 6.695,3.46 6.909,3.311C7.092,3.165 7.282,2.839 7.496,2.315L7.83,2.378L7.214,5.612L6.895,5.539C6.895,4.986 6.81,4.609 6.695,4.397C6.564,4.194 6.195,4.022 5.611,3.92L3.438,3.517L2.792,6.983C2.756,7.264 2.792,7.435 2.966,7.526C3.135,7.614 3.661,7.717 4.54,7.888C5.477,8.079 6.204,8.094 6.695,7.968C7.184,7.855 7.692,7.421 8.182,6.701L8.584,6.761L7.502,9.009L-0.052,7.614L0,7.36Z" style="fill:rgb(19,61,107);fill-rule:nonzero;"></path>
            </g>
            <g transform="matrix(1,0,0,1,262.504,413.655)">
                <path d="M0,8.179C0.114,8.251 0.345,8.304 0.718,8.317C1.811,8.365 2.748,8.184 3.48,7.786C4.604,7.153 5.216,6.026 5.285,4.391C5.362,2.928 4.963,1.801 4.074,1.036C3.329,0.368 2.311,0.005 1.014,-0.045C0.718,-0.075 0.49,-0.04 0.367,0.036C0.26,0.096 0.186,0.24 0.186,0.478L-0.142,7.716C-0.155,7.95 -0.11,8.093 0,8.179M-2.872,8.42C-2.349,8.382 -2.009,8.315 -1.845,8.179C-1.687,8.058 -1.597,7.734 -1.565,7.202L-1.283,0.863C-1.252,0.358 -1.32,0.023 -1.466,-0.145C-1.597,-0.297 -1.947,-0.397 -2.479,-0.458L-2.462,-0.729L1.364,-0.56C2.669,-0.493 3.745,-0.239 4.621,0.24C6.198,1.077 6.941,2.478 6.851,4.432C6.828,5.143 6.646,5.82 6.335,6.449C5.999,7.077 5.54,7.59 4.94,8.007C4.554,8.264 4.166,8.455 3.756,8.576C3.029,8.807 2.124,8.908 1.059,8.868L-2.883,8.692L-2.872,8.42Z" style="fill:rgb(19,61,107);fill-rule:nonzero;"></path>
            </g>
            <g transform="matrix(1,0,0,1,275.937,414.405)">
                <path d="M0,6.845C0.637,7.524 1.371,7.856 2.231,7.811C3.074,7.771 3.774,7.388 4.335,6.654C4.893,5.94 5.139,4.813 5.062,3.269C4.971,1.728 4.626,0.623 3.979,-0.043C3.355,-0.692 2.625,-1.016 1.797,-0.956C0.936,-0.936 0.229,-0.528 -0.316,0.218C-0.865,0.948 -1.128,2.075 -1.043,3.586C-0.966,5.07 -0.615,6.157 0,6.845M-1.398,-0.065C-0.562,-0.946 0.481,-1.421 1.765,-1.479C3.046,-1.549 4.147,-1.173 5.062,-0.382C6.066,0.488 6.591,1.682 6.668,3.191C6.749,4.733 6.314,5.985 5.389,6.938C4.544,7.796 3.502,8.264 2.245,8.334C0.923,8.394 -0.212,7.987 -1.133,7.137C-2.07,6.267 -2.571,5.105 -2.64,3.657C-2.717,2.143 -2.313,0.895 -1.398,-0.065" style="fill:rgb(19,61,107);fill-rule:nonzero;"></path>
            </g>
            <g transform="matrix(1,0,0,1,286.991,411.41)">
                <path d="M0,10.228C0.568,10.082 0.936,9.893 1.061,9.677C1.199,9.448 1.215,8.965 1.102,8.226L0.186,2.006L-0.048,1.823C-0.302,1.607 -0.473,1.476 -0.637,1.446C-0.795,1.401 -1.011,1.401 -1.298,1.436L-1.343,1.174L1.061,0.817L7.499,6.749L6.8,2.08C6.691,1.313 6.503,0.817 6.244,0.628C6.068,0.498 5.714,0.445 5.186,0.475L5.163,0.218L8.457,-0.269L8.5,0.012C7.972,0.118 7.63,0.304 7.486,0.536C7.333,0.78 7.318,1.265 7.426,1.995L8.51,9.418L8.289,9.448L0.91,2.643L1.705,8.116C1.831,8.897 2.02,9.388 2.278,9.574C2.447,9.709 2.791,9.77 3.307,9.745L3.34,9.997L0.032,10.497L0,10.228Z" style="fill:rgb(19,61,107);fill-rule:nonzero;"></path>
            </g>
            <g transform="matrix(1,0,0,1,312.601,410.079)">
                <path d="M0,5.483C0.391,5.071 0.476,4.477 0.247,3.712C0.016,2.946 -0.407,2.501 -1.051,2.375C-1.68,2.279 -2.416,2.342 -3.284,2.603C-3.49,2.649 -3.631,2.697 -3.682,2.722C-3.736,2.732 -3.817,2.754 -3.94,2.777L-2.937,6.179C-2.861,6.424 -2.738,6.54 -2.585,6.585C-2.449,6.615 -2.122,6.54 -1.624,6.401C-0.95,6.197 -0.397,5.883 0,5.483M-1.72,1.299C-1.225,0.861 -1.073,0.297 -1.29,-0.392C-1.528,-1.201 -2.017,-1.662 -2.771,-1.747C-3.179,-1.775 -3.772,-1.695 -4.519,-1.465C-4.818,-1.382 -4.974,-1.307 -5.029,-1.246C-5.082,-1.171 -5.064,-1.031 -5.004,-0.819L-4.079,2.269L-2.791,1.862C-2.344,1.726 -1.991,1.527 -1.72,1.299M-5.387,7.774C-4.833,7.595 -4.519,7.399 -4.396,7.203C-4.268,7.017 -4.29,6.675 -4.436,6.168L-6.257,0.101C-6.393,-0.41 -6.565,-0.694 -6.779,-0.804C-6.979,-0.905 -7.358,-0.882 -7.916,-0.739L-7.989,-0.997L-4.169,-2.126C-3.08,-2.456 -2.162,-2.535 -1.421,-2.375C-0.669,-2.225 -0.168,-1.709 0.096,-0.842C0.292,-0.205 0.199,0.347 -0.15,0.826C-0.352,1.094 -0.674,1.356 -1.139,1.635C-0.47,1.59 0.121,1.685 0.689,1.915C1.237,2.13 1.598,2.55 1.781,3.184C2.103,4.261 1.834,5.136 0.969,5.825C0.503,6.185 -0.105,6.487 -0.859,6.715L-5.301,8.018L-5.387,7.774Z" style="fill:rgb(19,61,107);fill-rule:nonzero;"></path>
            </g>
            <g transform="matrix(1,0,0,1,321.658,404.167)">
                <path d="M0,7.793C0.817,8.226 1.614,8.286 2.406,7.964C3.196,7.668 3.729,7.069 4.003,6.199C4.308,5.326 4.162,4.188 3.583,2.759C3.005,1.33 2.298,0.405 1.501,-0.02C0.671,-0.448 -0.118,-0.493 -0.878,-0.186C-1.673,0.133 -2.198,0.747 -2.479,1.624C-2.767,2.513 -2.631,3.659 -2.07,5.052C-1.497,6.431 -0.812,7.346 0,7.793M-3.594,1.723C-3.111,0.621 -2.267,-0.179 -1.079,-0.651C0.105,-1.145 1.279,-1.154 2.396,-0.696C3.624,-0.204 4.521,0.747 5.085,2.155C5.671,3.583 5.671,4.898 5.1,6.123C4.589,7.21 3.754,7.984 2.598,8.462C1.355,8.947 0.168,8.947 -0.988,8.442C-2.16,7.929 -3.021,6.988 -3.562,5.645C-4.122,4.232 -4.152,2.939 -3.594,1.723" style="fill:rgb(19,61,107);fill-rule:nonzero;"></path>
            </g>
            <g transform="matrix(1,0,0,1,331.644,400.184)">
                <path d="M0,5.844C0.508,6.305 0.996,6.637 1.443,6.833C2.258,7.164 3.038,7.117 3.797,6.742C4.192,6.541 4.451,6.24 4.627,5.826C4.788,5.414 4.763,4.987 4.526,4.534C4.31,4.116 3.974,3.825 3.53,3.682C3.236,3.581 2.671,3.495 1.863,3.438L0.442,3.307C0,3.275 -0.359,3.189 -0.662,3.086C-1.225,2.869 -1.63,2.518 -1.889,2.034C-2.208,1.401 -2.269,0.747 -2.063,0.111C-1.866,-0.536 -1.399,-1.031 -0.707,-1.39C-0.413,-1.537 -0.033,-1.639 0.447,-1.703C0.925,-1.77 1.194,-1.818 1.247,-1.851C1.413,-1.928 1.504,-2.027 1.518,-2.125C1.544,-2.225 1.544,-2.367 1.499,-2.512L1.766,-2.648L3.425,-0.093L3.118,0.063C2.487,-0.644 1.871,-1.044 1.239,-1.129C0.631,-1.219 0.105,-1.149 -0.353,-0.927C-0.685,-0.747 -0.931,-0.485 -1.097,-0.151C-1.266,0.189 -1.225,0.531 -1.036,0.888C-0.886,1.225 -0.639,1.451 -0.319,1.582C-0.005,1.718 0.428,1.803 0.966,1.843L2.441,1.954C3.359,2.034 4.057,2.178 4.521,2.394C4.984,2.608 5.349,2.978 5.598,3.471C5.945,4.116 5.975,4.816 5.693,5.513C5.417,6.211 4.901,6.757 4.114,7.164C3.726,7.371 3.281,7.504 2.768,7.567C2.273,7.653 2.002,7.67 1.916,7.715C1.785,7.798 1.71,7.889 1.694,8.012C1.694,8.128 1.71,8.234 1.74,8.36L1.458,8.492L-0.292,5.995L0,5.844Z" style="fill:rgb(19,61,107);fill-rule:nonzero;"></path>
            </g>
            <g transform="matrix(1,0,0,1,343.074,400.998)">
                <path d="M0,-8.854C0.525,-9.015 0.838,-9.111 0.892,-9.146C0.998,-9.216 1.097,-9.312 1.154,-9.443C1.215,-9.579 1.228,-9.716 1.185,-9.875L1.431,-10.026L3.241,-7.385L2.97,-7.217C2.467,-7.652 1.994,-7.966 1.521,-8.137C0.637,-8.439 -0.229,-8.326 -1.064,-7.803C-1.901,-7.27 -2.382,-6.515 -2.513,-5.507C-2.633,-4.513 -2.329,-3.419 -1.592,-2.246C-0.913,-1.184 -0.091,-0.48 0.867,-0.198C1.851,0.091 2.749,-0.04 3.621,-0.586C4.245,-0.965 4.735,-1.481 5.067,-2.115C5.264,-2.454 5.432,-2.929 5.578,-3.498L5.952,-3.418C5.897,-2.904 5.746,-2.396 5.5,-1.896C5.098,-1.033 4.499,-0.369 3.715,0.123C2.422,0.939 1.129,1.172 -0.144,0.821C-1.333,0.481 -2.291,-0.244 -2.998,-1.395C-3.729,-2.567 -3.982,-3.799 -3.729,-5.04C-3.468,-6.377 -2.729,-7.425 -1.469,-8.223C-1.028,-8.477 -0.538,-8.701 0,-8.854" style="fill:rgb(19,61,107);fill-rule:nonzero;"></path>
            </g>
            <g transform="matrix(1,0,0,1,354.609,385.941)">
                <path d="M0,7.892C0.898,8.093 1.698,7.951 2.374,7.424C3.059,6.919 3.41,6.208 3.458,5.288C3.509,4.374 3.059,3.305 2.138,2.073C1.197,0.856 0.267,0.147 -0.631,-0.04C-1.523,-0.215 -2.288,-0.054 -2.957,0.433C-3.636,0.964 -3.983,1.676 -4.028,2.596C-4.061,3.532 -3.629,4.593 -2.711,5.785C-1.806,6.977 -0.905,7.671 0,7.892M-5.074,2.997C-4.898,1.801 -4.292,0.805 -3.268,0.041C-2.258,-0.744 -1.142,-1.071 0.065,-0.927C1.371,-0.784 2.49,-0.107 3.418,1.108C4.357,2.334 4.703,3.607 4.487,4.932C4.286,6.107 3.688,7.083 2.689,7.827C1.63,8.644 0.479,8.963 -0.774,8.778C-2.052,8.586 -3.103,7.922 -3.983,6.771C-4.914,5.569 -5.28,4.306 -5.074,2.997" style="fill:rgb(19,61,107);fill-rule:nonzero;"></path>
            </g>
            <g transform="matrix(1,0,0,1,161.208,364.62)">
                <path d="M0,-166.422L-7.312,-171.895C-22.228,-149.413 -30.934,-122.451 -30.934,-93.445C-30.934,-54.987 -15.613,-20.101 9.207,5.473C-11.87,-19.314 -24.619,-51.405 -24.619,-86.487C-24.619,-116.142 -15.523,-143.645 0,-166.422" style="fill:rgb(19,61,107);fill-rule:nonzero;"></path>
            </g>
            <g transform="matrix(1,0,0,1,361.485,218.392)">
                <path d="M0,162.284L5.819,169.31C25.561,150.922 40.317,126.744 47.08,98.538C56.016,61.115 49.251,23.63 31.046,-7.026C45.775,21.984 50.704,56.166 42.531,90.297C35.635,119.114 20.385,143.75 0,162.284" style="fill:rgb(19,61,107);fill-rule:nonzero;"></path>
            </g>
            <g transform="matrix(1,0,0,1,227.622,201.73)">
                <path d="M0,27.041C3.886,23.049 8.566,19.963 13.76,18.266C20.613,16.034 27.799,14.258 35.113,13.7L38.262,0.039C37.365,0.021 36.474,0 35.54,0.011C18.246,0.283 5.104,5.977 -4.299,13.027L0,27.041Z" style="fill:rgb(255,209,94);fill-rule:nonzero;"></path>
            </g>
        </g>
    </g>
</svg>
